<?xml version="1.0" encoding="UTF-8" standalone="no"?>
<svg
   xmlns:dc="http://purl.org/dc/elements/1.1/"
   xmlns:cc="http://creativecommons.org/ns#"
   xmlns:rdf="http://www.w3.org/1999/02/22-rdf-syntax-ns#"
   xmlns:svg="http://www.w3.org/2000/svg"
   xmlns="http://www.w3.org/2000/svg"
   xmlns:sodipodi="http://sodipodi.sourceforge.net/DTD/sodipodi-0.dtd"
   xmlns:inkscape="http://www.inkscape.org/namespaces/inkscape"
   inkscape:version="0.92.4 (5da689c313, 2019-01-14)"
   sodipodi:docname="apple-menu.svg"
   viewBox="0 0 647 768"
   height="24"
   width="24"
   id="svg2"
   version="1.1">
  <metadata
     id="metadata8">
    <rdf:RDF>
      <cc:Work
         rdf:about="">
        <dc:format>image/svg+xml</dc:format>
        <dc:type
           rdf:resource="http://purl.org/dc/dcmitype/StillImage" />
        <dc:title />
      </cc:Work>
    </rdf:RDF>
  </metadata>
  <defs
     id="defs6" />
  <sodipodi:namedview
     inkscape:document-rotation="0"
     inkscape:current-layer="svg2"
     inkscape:window-maximized="1"
     inkscape:window-y="24"
     inkscape:window-x="0"
     inkscape:cy="9.2378865"
     inkscape:cx="8.5766988"
     inkscape:zoom="13.906433"
     showgrid="false"
     id="namedview4"
     inkscape:window-height="718"
     inkscape:window-width="1360"
     inkscape:pageshadow="2"
     inkscape:pageopacity="0"
     guidetolerance="10"
     gridtolerance="10"
     objecttolerance="10"
     borderopacity="1"
     bordercolor="#666666"
     pagecolor="#ffffff" />
  <path
     style="fill:#000000;stroke-width:0.91739291"
     d="M 201.80628,734.90279 C 146.40283,717.86111 115.36627,664.15287 85.389776,618.6388 34.907246,529.96278 8.0435714,419.7421 42.166393,320.59163 70.410367,243.9692 154.79244,185.14841 237.50051,204.30925 c 32.81048,6.77968 63.56414,27.0423 97.42779,25.87443 51.98865,-14.0919 104.48019,-42.04082 159.73178,-27.5955 41.82064,8.07289 81.95196,30.6651 106.21191,66.30239 -49.76655,28.75392 -84.50231,85.72224 -77.54342,144.11415 0.63337,59.46744 43.46348,112.36477 96.72464,135.33652 -23.70463,66.86372 -61.97527,131.48586 -118.93442,175.01237 -37.32773,22.25503 -82.01915,7.66187 -118.58588,-8.35897 -42.49959,-13.86032 -88.12049,-4.07921 -127.84277,13.62082 -16.92683,5.57839 -35.06726,9.37718 -52.88386,6.28733 z m 122.6248,-536.84078 c -8.03352,-82.82752 64.321,-159.748371 145.48862,-166.069111 8.97071,71.884781 -44.97348,143.093011 -112.71419,163.381241 -10.67696,2.67946 -21.80048,3.71732 -32.77443,2.68787 z"
     id="path12"
     inkscape:connector-curvature="0" />
</svg>
